<?xml version="1.0" encoding="UTF-8" standalone="no"?>
<!-- Created with Inkscape (http://www.inkscape.org/) -->

<svg
   xmlns:dc="http://purl.org/dc/elements/1.1/"
   xmlns:cc="http://creativecommons.org/ns#"
   xmlns:rdf="http://www.w3.org/1999/02/22-rdf-syntax-ns#"
   xmlns:svg="http://www.w3.org/2000/svg"
   xmlns="http://www.w3.org/2000/svg"
   xmlns:sodipodi="http://sodipodi.sourceforge.net/DTD/sodipodi-0.dtd"
   xmlns:inkscape="http://www.inkscape.org/namespaces/inkscape"
   id="svg2"
   version="1.1"
   inkscape:version="0.91 r13725"
   xml:space="preserve"
   width="735.24597"
   height="292.88"
   viewBox="0 0 735.24598 292.87999"
   sodipodi:docname="index-black-logo.svg"><metadata
     id="metadata8"><rdf:RDF><cc:Work
         rdf:about=""><dc:format>image/svg+xml</dc:format><dc:type
           rdf:resource="http://purl.org/dc/dcmitype/StillImage" /><dc:title></dc:title></cc:Work></rdf:RDF></metadata><defs
     id="defs6"><clipPath
       clipPathUnits="userSpaceOnUse"
       id="clipPath16"><path
         d="m 0,841.89 595.28,0 L 595.28,0 0,0 0,841.89 Z"
         id="path18"
         inkscape:connector-curvature="0" /></clipPath></defs><sodipodi:namedview
     pagecolor="#ffffff"
     bordercolor="#666666"
     borderopacity="1"
     objecttolerance="10"
     gridtolerance="10"
     guidetolerance="10"
     inkscape:pageopacity="0"
     inkscape:pageshadow="2"
     inkscape:window-width="1366"
     inkscape:window-height="705"
     id="namedview4"
     showgrid="false"
     inkscape:zoom="0.89702926"
     inkscape:cx="323.46228"
     inkscape:cy="140.00235"
     inkscape:window-x="0"
     inkscape:window-y="123"
     inkscape:window-maximized="1"
     inkscape:current-layer="g10" /><g
     id="g10"
     inkscape:groupmode="layer"
     inkscape:label="INSTITUCIONAL_CMYK_PRETO"
     transform="matrix(1.25,0,0,-1.25,0,292.87995)"><g
       id="g12"
       transform="translate(-2.6088113,-306.28853)"><g
         id="g14"
         clip-path="url(#clipPath16)"><g
           id="g20"
           transform="translate(227.4966,464.5459)"><path
             d="m 0,0 c 0,-9.346 0.017,-18.691 -0.004,-28.037 -0.032,-14.719 -0.095,-29.439 -0.131,-44.158 -0.007,-3.155 0.401,-3.541 3.573,-3.54 3.139,0.001 6.28,0.089 9.417,0.023 9.529,-0.195 19.024,-0.133 27.999,3.731 13.899,5.983 22.688,16.78 28.023,30.541 7.627,19.675 8.82,40.006 5.31,60.68 C 72.005,32.091 67.746,44.143 59.745,54.639 51.377,65.616 40.796,73.142 26.743,74.373 19.023,75.048 11.217,74.741 3.449,74.839 0.011,74.883 0.002,74.841 0.001,71.458 -0.001,47.639 0,23.819 0,0 m -31.279,75.604 c 0.771,0.074 1.542,0.209 2.313,0.214 14.058,0.087 28.118,0.337 42.174,0.175 10.466,-0.12 21.007,0.202 31.269,-2.609 C 71.12,66.086 87.398,48.807 93.596,22.033 97.672,4.422 97.369,-13.07 90.638,-30.072 80.161,-56.538 60.852,-72.021 32.584,-76.091 c -2.69,-0.388 -5.435,-0.55 -8.155,-0.557 -17.951,-0.048 -35.903,-0.026 -53.854,-0.021 -0.555,0 -1.11,0.065 -1.742,0.579 0.809,0.162 1.617,0.457 2.426,0.461 2.23,0.01 4.46,-0.11 6.691,-0.164 3.22,-0.077 4.133,0.814 4.044,4.083 -0.062,2.31 -0.334,4.617 -0.335,6.926 -0.021,45.167 -0.015,90.334 -0.016,135.502 0,4.105 -0.003,4.087 -4.097,4.043 -2.938,-0.032 -5.876,-0.007 -8.814,-0.007 -0.003,0.284 -0.007,0.567 -0.011,0.85"
             style="fill:#231f20;fill-opacity:1;fill-rule:nonzero;stroke:none"
             id="path22"
             inkscape:connector-curvature="0" /></g><g
           id="g24"
           transform="translate(439.4238,425.7319)"><path
             d="m 0,0 c 0,-1.183 -0.007,-2.365 0.002,-3.548 0.072,-10.253 0.158,-20.507 0.217,-30.76 0.019,-3.384 -0.165,-3.55 -3.441,-3.55 -33.092,-0.002 -66.184,-0.003 -99.277,0.005 -0.854,0.001 -1.707,0.099 -2.561,0.15 -0.011,0.205 -0.023,0.41 -0.035,0.615 0.488,0.108 0.974,0.306 1.462,0.309 3.226,0.023 6.452,0.029 9.679,-0.015 1.419,-0.02 2.211,0.434 2.035,2.004 -0.073,0.654 -0.011,1.323 -0.011,1.984 0,46.081 -10e-4,92.162 0.002,138.244 0,1.901 -0.006,3.803 0.059,5.703 0.066,1.956 -0.877,2.575 -2.746,2.525 -3.616,-0.097 -7.238,-0.028 -10.941,0.475 0.805,0.166 1.609,0.478 2.413,0.478 32.845,0.025 65.689,0.016 98.534,0.037 1.574,10e-4 2.475,-0.356 2.468,-2.197 -0.047,-11.66 -0.024,-23.32 -0.515,-35.106 -0.467,1.664 -0.893,3.341 -1.408,4.989 -1.452,4.636 -2.587,9.409 -4.483,13.858 -4.605,10.805 -13.233,16.334 -24.767,16.803 -12.733,0.518 -25.492,0.414 -38.238,0.615 -1.066,0.017 -1.948,-0.839 -1.922,-1.906 0.017,-0.649 -0.005,-1.298 -0.005,-1.948 0,-21.51 0.067,-43.02 -0.037,-64.53 -0.035,-7.252 -0.3,-6.252 6.188,-6.184 6.613,0.069 13.246,-0.05 19.835,0.401 11.426,0.782 21.139,9.236 23.023,20.532 0.107,0.64 0.274,1.269 0.415,1.903 0.21,-0.017 0.421,-0.034 0.631,-0.051 l 0,-46.805 -0.486,-0.113 c -0.187,0.616 -0.444,1.219 -0.548,1.849 -2.173,13.186 -9.647,20.081 -23.073,20.806 -7.67,0.415 -15.369,0.266 -23.05,0.538 -2.374,0.084 -2.946,-0.789 -2.937,-3.006 0.074,-15.636 0.039,-31.272 0.039,-46.908 0,-7.115 -0.011,-14.23 0.006,-21.345 0.007,-3.102 0.458,-3.634 3.604,-3.616 12.816,0.074 25.648,-0.136 38.445,0.435 13.024,0.581 22.035,7.348 26.305,19.789 1.68,4.898 2.699,10.021 4.025,15.039 0.144,0.542 0.331,1.071 0.498,1.606 C -0.397,0.069 -0.198,0.035 0,0"
             style="fill:#231f20;fill-opacity:1;fill-rule:nonzero;stroke:none"
             id="path26"
             inkscape:connector-curvature="0" /></g><g
           id="g28"
           transform="translate(173.2734,397.3047)"><path
             d="m 0,0 c 0.064,1.45 0.128,2.23 0.128,3.012 0.005,38.307 0.06,76.614 -0.079,114.921 -0.014,3.987 -0.878,8.051 -1.889,11.938 -1.686,6.481 -5.33,11.354 -12.407,12.824 l 29.583,0 C 14.708,142.24 14.51,141.98 14.28,141.948 9.508,141.286 6.657,138.298 4.751,134.143 2.241,128.671 1.623,122.804 1.609,116.928 1.517,75.967 1.542,35.007 1.528,-5.953 1.527,-9.704 1.314,-9.886 -2.384,-9.825 c -2.734,0.045 -5.476,0.133 -8.2,-0.033 -2.434,-0.148 -3.955,0.683 -5.228,2.846 -17.876,30.399 -35.829,60.754 -53.77,91.115 -10.402,17.603 -20.817,35.199 -31.231,52.795 -0.363,0.613 -0.78,1.194 -1.497,2.283 -0.068,-1.241 -0.14,-1.933 -0.14,-2.625 -0.005,-39.883 -0.063,-79.766 0.078,-119.648 0.016,-4.408 0.81,-8.901 1.88,-13.196 1.607,-6.457 5.129,-11.469 12.267,-13.017 l -28.613,0 c -0.026,0.11 -0.053,0.219 -0.079,0.328 0.346,0.144 0.68,0.371 1.038,0.417 4.008,0.524 6.529,2.992 8.309,6.381 2.472,4.71 3.647,9.791 3.654,15.063 0.061,42.121 0.035,84.242 0.116,126.363 0.004,2.273 -0.716,2.825 -2.845,2.722 -3.441,-0.166 -6.896,-0.045 -10.345,-0.045 -0.044,0.234 -0.087,0.467 -0.131,0.701 0.575,0.128 1.148,0.369 1.723,0.37 8.54,0.021 17.106,-0.39 25.611,0.161 4.838,0.313 7.108,-1.417 9.423,-5.413 C -54.35,92.836 -28.131,48.047 -1.965,3.228 -1.442,2.331 -0.886,1.453 0,0"
             style="fill:#231f20;fill-opacity:1;fill-rule:nonzero;stroke:none"
             id="path30"
             inkscape:connector-curvature="0" /></g><g
           id="g32"
           transform="translate(454.7637,540)"><path
             d="m 0,0 44.418,0 0.027,-1 -13.734,0 c 14.056,-22.581 27.737,-44.564 41.637,-66.895 4.066,5.888 7.977,11.496 11.832,17.143 6.466,9.474 13.039,18.881 19.263,28.513 2.11,3.263 3.635,7.012 4.83,10.732 1.551,4.826 -1.037,8.664 -6.041,9.666 -1.847,0.37 -3.745,0.494 -5.442,0.708 2.502,1.127 31.441,1.392 35.524,0.082 -11.867,-1.511 -18.461,-9.773 -24.545,-18.156 -10.856,-14.957 -21.01,-30.422 -31.783,-45.441 -2.614,-3.644 -2.196,-6.057 0.054,-9.553 16.023,-24.905 31.846,-49.94 47.681,-74.965 1.06,-1.676 2.309,-2.376 4.254,-2.298 2.688,0.109 5.385,0.027 8.067,-0.536 l -45.619,0 -0.013,1 13.971,0 c 0,0 -28.537,45.453 -42.866,68.433 -0.814,-0.985 -1.532,-1.727 -2.105,-2.568 -10.34,-15.157 -20.777,-30.25 -30.899,-45.551 -2.174,-3.286 -3.798,-7.206 -4.608,-11.058 -1.092,-5.206 1.966,-8.472 7.295,-8.998 1.54,-0.153 4.597,-0.258 4.597,-0.258 l -35.438,0 c -0.023,0.072 -0.047,0.145 -0.072,0.218 1.333,0.306 2.68,0.561 3.995,0.929 5.644,1.577 9.668,5.478 13.516,9.578 9.45,10.068 16.935,21.619 24.738,32.928 5.467,7.923 10.881,15.884 16.459,23.728 1.6,2.25 0.788,3.958 -0.406,5.839 -6.217,9.788 -12.433,19.576 -18.628,29.378 -9.272,14.669 -18.58,29.316 -27.74,44.055 -1.603,2.579 -3.277,4.05 -6.493,3.639 -1.892,-0.24 -3.871,0.197 -5.81,0.33 C -0.056,-0.252 -0.027,-0.126 0,0"
             style="fill:#231f20;fill-opacity:1;fill-rule:nonzero;stroke:none"
             id="path34"
             inkscape:connector-curvature="0" /></g><g
           id="g36"
           transform="translate(47.3677,388)"><path
             d="m 0,0 -44.741,0 -0.018,0.724 c 2.822,0 5.643,-0.003 8.465,0.001 5.792,0.005 4.804,-0.275 4.807,4.728 0.024,44.113 0.011,88.226 0.017,132.339 10e-4,3.481 0.096,6.963 0.077,10.444 -0.016,3.039 -0.309,3.251 -3.269,3.208 -2.868,-0.041 -5.736,-0.009 -8.603,0.556 l 43.117,0 c 0.002,-0.191 0.005,-0.382 0.008,-0.573 -3.482,0 -6.968,-0.111 -10.443,0.043 -1.98,0.087 -2.608,-0.56 -2.606,-2.524 0.038,-48.508 0.04,-97.015 -0.002,-145.523 -0.002,-2.119 0.853,-2.779 2.819,-2.72 2.723,0.084 5.451,0.036 8.176,0.011 C -1.444,0.706 -0.693,0.58 0.059,0.508 0.039,0.339 0.02,0.169 0,0"
             style="fill:#231f20;fill-opacity:1;fill-rule:nonzero;stroke:none"
             id="path38"
             inkscape:connector-curvature="0" /></g><g
           id="g40"
           transform="translate(297.3848,324.7227)"><path
             d="M 0,0 C 1.9,-1.063 3.336,-2.006 4.885,-2.697 6.576,-3.452 6.868,-4.406 5.966,-5.989 5.097,-7.515 4.254,-8.633 2.309,-7.418 c -1.659,1.035 -3.409,1.925 -5.444,3.06 0,-2.179 -0.109,-3.982 0.03,-5.764 0.146,-1.866 -0.687,-2.602 -2.419,-2.587 -1.612,0.014 -2.997,0.243 -2.891,2.414 0.092,1.871 0.019,3.75 0.019,6.019 -1.921,-1.235 -3.583,-2.262 -5.201,-3.355 -1.121,-0.757 -2.101,-0.767 -2.505,0.629 -0.377,1.304 -2.848,2.583 -0.245,4.07 1.783,1.02 3.579,2.015 5.755,3.238 -2.043,1.152 -3.762,2.201 -5.554,3.104 -1.347,0.679 -1.797,1.577 -0.717,2.684 0.946,0.968 0.881,3.771 3.446,2.176 1.58,-0.984 3.126,-2.023 5.028,-3.257 0,2.252 0.076,4.046 -0.019,5.831 -0.114,2.16 1.269,2.497 2.874,2.422 1.557,-0.073 2.651,-0.651 2.449,-2.619 C -3.268,8.87 -3.124,7.059 -3.124,4.805 -1.12,5.916 0.619,6.773 2.241,7.812 3.673,8.729 4.679,8.576 5.458,7.054 6.171,5.661 7.243,4.267 5.163,3.069 3.595,2.167 2.052,1.223 0,0"
             style="fill:#231f20;fill-opacity:1;fill-rule:nonzero;stroke:none"
             id="path42"
             inkscape:connector-curvature="0" /></g><g
           id="g44"
           transform="translate(412.5039,324.8242)"><path
             d="m 0,0 c 0.027,-5.35 -4.387,-9.831 -9.691,-9.839 -5.263,-0.007 -9.57,4.28 -9.612,9.57 -0.044,5.528 4.07,9.868 9.473,9.994 C -4.624,9.848 -0.027,5.3 0,0"
             style="fill:#231f20;fill-opacity:1;fill-rule:nonzero;stroke:none"
             id="path46"
             inkscape:connector-curvature="0" /></g><g
           id="g48"
           transform="translate(525.5645,314)"><path
             d="m 0,0 -23.949,0 c 4.028,7.834 7.929,15.42 12.053,23.439 C -7.883,15.532 -4.054,7.988 0,0"
             style="fill:#231f20;fill-opacity:1;fill-rule:nonzero;stroke:none"
             id="path50"
             inkscape:connector-curvature="0" /></g><g
           id="g52"
           transform="translate(168.8569,332.9697)"><path
             d="m 0,0 0,-14.499 12.557,-7.25 12.556,7.25 L 25.113,0 12.557,7.249 0,0 Z"
             style="fill:#231f20;fill-opacity:1;fill-rule:nonzero;stroke:none"
             id="path54"
             inkscape:connector-curvature="0" /></g><g
           id="g56"
           transform="translate(70.8916,309.8242)"><path
             d="M 0,0 -13.883,13.883 0,27.766 13.883,13.883 0,0 Z"
             style="fill:none;stroke:#231f20;stroke-width:5;stroke-linecap:butt;stroke-linejoin:miter;stroke-miterlimit:10;stroke-dasharray:none;stroke-opacity:1"
             id="path58"
             inkscape:connector-curvature="0" /></g></g></g></g></svg>